Himmatwala 2013 Final Cam [Team ICTV] Phantom
 
http://www.imdb.com/title/tt2344678/

Poster: 
http://desibbrg.org/images/20597775436576632792.jpg

Screens: 
http://desibbrg.org/images/92361371448743557303.jpg
 
http://desibbrg.org/images/82866424754142770304.jpg
 
http://desibbrg.org/images/77537509781410124015.jpg
 
http://desibbrg.org/images/52742374569172574210.jpg
 
http://desibbrg.org/images/30867945382548534065.jpg
 
http://desibbrg.org/images/29454466273047149623.jpg
 
http://desibbrg.org/images/53542706268808001178.jpg
 
http://desibbrg.org/images/03023721077607872061.jpg
 
http://desibbrg.org/images/97786408465621095656.jpg
 
http://desibbrg.org/images/32726247491156722212.jpg

Media Info:
Format : MPEG-PS
File size : 801 MiB
Duration : 2h 13mn
Overall bit rate : 836 Kbps

Video
ID : 224 (0xE0)
Format : MPEG Video
Format version : Version 2
Format settings, BVOP : Yes
Format settings, Matrix : Custom
Duration : 2h 13mn
Bit rate : 756 Kbps
Maximum bit rate : 1 150 Kbps
Width : 352 pixels
Height : 288 pixels
Display aspect ratio : 1.222
Frame rate : 25.000 fps
Standard : PAL
Color space : YUV
Bit depth : 8 bits
Scan type : Progressive
Compression mode : Lossy
Bits/(Pixel*Frame) : 0.298
Stream size : 724 MiB (90%)

Audio
ID : 192 (0xC0)
Format : MPEG Audio
Format version : Version 1
Format profile : Layer 2
Duration : 2h 13mn
Bit rate mode : Constant
Bit rate : 64.0 Kbps
Channel(s) : 2 channels
Sampling rate : 48.0 KHz
Compression mode : Lossy
Stream size : 61.3 MiB (8%)

All Credits to TJ DA KING for the rip-n-share.

Extreme Seeding...
